%TF.GenerationSoftware,KiCad,Pcbnew,10.0.4*%
%TF.CreationDate,2026-06-26T21:47:15+05:30*%
%TF.ProjectId,contact_card_v1,636f6e74-6163-4745-9f63-6172645f7631,rev?*%
%TF.SameCoordinates,Original*%
%TF.FileFunction,Paste,Top*%
%TF.FilePolarity,Positive*%
%FSLAX46Y46*%
G04 Gerber Fmt 4.6, Leading zero omitted, Abs format (unit mm)*
G04 Created by KiCad (PCBNEW 10.0.4) date 2026-06-26 21:47:15*
%MOMM*%
%LPD*%
G01*
G04 APERTURE LIST*
G04 Aperture macros list*
%AMRoundRect*
0 Rectangle with rounded corners*
0 $1 Rounding radius*
0 $2 $3 $4 $5 $6 $7 $8 $9 X,Y pos of 4 corners*
0 Add a 4 corners polygon primitive as box body*
4,1,4,$2,$3,$4,$5,$6,$7,$8,$9,$2,$3,0*
0 Add four circle primitives for the rounded corners*
1,1,$1+$1,$2,$3*
1,1,$1+$1,$4,$5*
1,1,$1+$1,$6,$7*
1,1,$1+$1,$8,$9*
0 Add four rect primitives between the rounded corners*
20,1,$1+$1,$2,$3,$4,$5,0*
20,1,$1+$1,$4,$5,$6,$7,0*
20,1,$1+$1,$6,$7,$8,$9,0*
20,1,$1+$1,$8,$9,$2,$3,0*%
G04 Aperture macros list end*
%ADD10RoundRect,0.237500X-0.287500X-0.237500X0.287500X-0.237500X0.287500X0.237500X-0.287500X0.237500X0*%
%ADD11RoundRect,0.150000X-0.150000X-0.575000X0.150000X-0.575000X0.150000X0.575000X-0.150000X0.575000X0*%
%ADD12RoundRect,0.075000X-0.075000X-0.650000X0.075000X-0.650000X0.075000X0.650000X-0.075000X0.650000X0*%
%ADD13RoundRect,0.237500X0.237500X-0.250000X0.237500X0.250000X-0.237500X0.250000X-0.237500X-0.250000X0*%
%ADD14RoundRect,0.155000X-0.155000X0.212500X-0.155000X-0.212500X0.155000X-0.212500X0.155000X0.212500X0*%
%ADD15R,1.250000X1.000000*%
G04 APERTURE END LIST*
D10*
%TO.C,D24*%
X162560000Y-50800000D03*
X164310000Y-50800000D03*
%TD*%
%TO.C,D4*%
X142240000Y-40640000D03*
X143990000Y-40640000D03*
%TD*%
%TO.C,D61*%
X147320000Y-76200000D03*
X149070000Y-76200000D03*
%TD*%
%TO.C,D6*%
X152400000Y-40640000D03*
X154150000Y-40640000D03*
%TD*%
%TO.C,D43*%
X137160000Y-66040000D03*
X138910000Y-66040000D03*
%TD*%
%TO.C,D19*%
X137160000Y-50800000D03*
X138910000Y-50800000D03*
%TD*%
%TO.C,D26*%
X172720000Y-50800000D03*
X174470000Y-50800000D03*
%TD*%
%TO.C,D52*%
X142240000Y-71120000D03*
X143990000Y-71120000D03*
%TD*%
%TO.C,D65*%
X167640000Y-76200000D03*
X169390000Y-76200000D03*
%TD*%
%TO.C,D16*%
X162560000Y-45720000D03*
X164310000Y-45720000D03*
%TD*%
%TO.C,D12*%
X142240000Y-45720000D03*
X143990000Y-45720000D03*
%TD*%
%TO.C,D56*%
X162560000Y-71120000D03*
X164310000Y-71120000D03*
%TD*%
%TO.C,D10*%
X172720000Y-40640000D03*
X174470000Y-40640000D03*
%TD*%
%TO.C,D38*%
X152400000Y-60960000D03*
X154150000Y-60960000D03*
%TD*%
D11*
%TO.C,J1*%
X152274200Y-107537200D03*
X153074200Y-107537200D03*
D12*
X154274200Y-107537200D03*
X155274200Y-107537200D03*
X155774200Y-107537200D03*
X156774200Y-107537200D03*
D11*
X157974200Y-107537200D03*
X158774200Y-107537200D03*
X158774200Y-107537200D03*
X157974200Y-107537200D03*
D12*
X157274200Y-107537200D03*
X156274200Y-107537200D03*
X154774200Y-107537200D03*
X153774200Y-107537200D03*
D11*
X153074200Y-107537200D03*
X152274200Y-107537200D03*
%TD*%
D10*
%TO.C,D15*%
X157480000Y-45720000D03*
X159230000Y-45720000D03*
%TD*%
%TO.C,D18*%
X172720000Y-45720000D03*
X174470000Y-45720000D03*
%TD*%
D13*
%TO.C,R1*%
X155549600Y-105359200D03*
X155549600Y-103534200D03*
%TD*%
D10*
%TO.C,D63*%
X157480000Y-76200000D03*
X159230000Y-76200000D03*
%TD*%
%TO.C,D51*%
X137160000Y-71120000D03*
X138910000Y-71120000D03*
%TD*%
%TO.C,D49*%
X167640000Y-66040000D03*
X169390000Y-66040000D03*
%TD*%
%TO.C,D3*%
X137160000Y-40640000D03*
X138910000Y-40640000D03*
%TD*%
%TO.C,D41*%
X167640000Y-60960000D03*
X169390000Y-60960000D03*
%TD*%
%TO.C,D40*%
X162560000Y-60960000D03*
X164310000Y-60960000D03*
%TD*%
%TO.C,D45*%
X147320000Y-66040000D03*
X149070000Y-66040000D03*
%TD*%
%TO.C,D11*%
X137160000Y-45720000D03*
X138910000Y-45720000D03*
%TD*%
%TO.C,D27*%
X137160000Y-55880000D03*
X138910000Y-55880000D03*
%TD*%
%TO.C,D42*%
X172720000Y-60960000D03*
X174470000Y-60960000D03*
%TD*%
%TO.C,D57*%
X167640000Y-71120000D03*
X169390000Y-71120000D03*
%TD*%
%TO.C,D13*%
X147320000Y-45720000D03*
X149070000Y-45720000D03*
%TD*%
%TO.C,D64*%
X162560000Y-76200000D03*
X164310000Y-76200000D03*
%TD*%
%TO.C,D9*%
X167640000Y-40640000D03*
X169390000Y-40640000D03*
%TD*%
%TO.C,D62*%
X152400000Y-76200000D03*
X154150000Y-76200000D03*
%TD*%
%TO.C,D58*%
X172720000Y-71120000D03*
X174470000Y-71120000D03*
%TD*%
%TO.C,D59*%
X137160000Y-76200000D03*
X138910000Y-76200000D03*
%TD*%
%TO.C,D33*%
X167640000Y-55880000D03*
X169390000Y-55880000D03*
%TD*%
%TO.C,D50*%
X172720000Y-66040000D03*
X174470000Y-66040000D03*
%TD*%
%TO.C,D8*%
X162560000Y-40640000D03*
X164310000Y-40640000D03*
%TD*%
%TO.C,D17*%
X167640000Y-45720000D03*
X169390000Y-45720000D03*
%TD*%
%TO.C,D14*%
X152400000Y-45720000D03*
X154150000Y-45720000D03*
%TD*%
%TO.C,D37*%
X147320000Y-60960000D03*
X149070000Y-60960000D03*
%TD*%
%TO.C,D7*%
X157480000Y-40640000D03*
X159230000Y-40640000D03*
%TD*%
%TO.C,D30*%
X152400000Y-55880000D03*
X154150000Y-55880000D03*
%TD*%
%TO.C,D54*%
X152400000Y-71120000D03*
X154150000Y-71120000D03*
%TD*%
D14*
%TO.C,C1*%
X153060400Y-104495600D03*
X153060400Y-105630600D03*
%TD*%
D13*
%TO.C,R2*%
X157327600Y-105384600D03*
X157327600Y-103559600D03*
%TD*%
D10*
%TO.C,D39*%
X157480000Y-60960000D03*
X159230000Y-60960000D03*
%TD*%
%TO.C,D25*%
X167640000Y-50800000D03*
X169390000Y-50800000D03*
%TD*%
%TO.C,D5*%
X147320000Y-40640000D03*
X149070000Y-40640000D03*
%TD*%
%TO.C,D29*%
X147320000Y-55880000D03*
X149070000Y-55880000D03*
%TD*%
%TO.C,D34*%
X172720000Y-55880000D03*
X174470000Y-55880000D03*
%TD*%
%TO.C,D28*%
X142240000Y-55880000D03*
X143990000Y-55880000D03*
%TD*%
%TO.C,D47*%
X157480000Y-66040000D03*
X159230000Y-66040000D03*
%TD*%
%TO.C,D60*%
X142240000Y-76200000D03*
X143990000Y-76200000D03*
%TD*%
%TO.C,D36*%
X142240000Y-60960000D03*
X143990000Y-60960000D03*
%TD*%
%TO.C,D32*%
X162560000Y-55880000D03*
X164310000Y-55880000D03*
%TD*%
%TO.C,D53*%
X147320000Y-71120000D03*
X149070000Y-71120000D03*
%TD*%
%TO.C,D21*%
X147320000Y-50800000D03*
X149070000Y-50800000D03*
%TD*%
%TO.C,D31*%
X157480000Y-55880000D03*
X159230000Y-55880000D03*
%TD*%
%TO.C,D23*%
X157480000Y-50800000D03*
X159230000Y-50800000D03*
%TD*%
%TO.C,D35*%
X137160000Y-60960000D03*
X138910000Y-60960000D03*
%TD*%
%TO.C,D48*%
X162560000Y-66040000D03*
X164310000Y-66040000D03*
%TD*%
D15*
%TO.C,SW4*%
X151725400Y-94589600D03*
X159475400Y-94589600D03*
%TD*%
D10*
%TO.C,D55*%
X157480000Y-71120000D03*
X159230000Y-71120000D03*
%TD*%
%TO.C,D20*%
X142240000Y-50800000D03*
X143990000Y-50800000D03*
%TD*%
%TO.C,D46*%
X152400000Y-66040000D03*
X154150000Y-66040000D03*
%TD*%
%TO.C,D66*%
X172720000Y-76200000D03*
X174470000Y-76200000D03*
%TD*%
%TO.C,D44*%
X142240000Y-66040000D03*
X143990000Y-66040000D03*
%TD*%
%TO.C,D22*%
X152400000Y-50800000D03*
X154150000Y-50800000D03*
%TD*%
M02*
