M48
; DRILL file KiCad 10.0.4 date 2026-06-26T21:47:24
; FORMAT={-:-/ absolute / metric / decimal}
; #@! TF.CreationDate,2026-06-26T21:47:24+05:30
; #@! TF.GenerationSoftware,Kicad,Pcbnew,10.0.4
; #@! TF.FileFunction,Plated,1,2,PTH
FMAT,2
METRIC
; #@! TA.AperFunction,Plated,PTH,ViaDrill
T1C0.300
; #@! TA.AperFunction,Plated,PTH,ComponentDrill
T2C0.600
%
G90
G05
T1
X131.4Y-89.7
X132.3Y-91.3
X134.1Y-94.7
X134.1Y-101.1
X134.3Y-103.6
X136.0Y-106.3
X137.6Y-62.7
X137.8Y-47.7
X138.3Y-52.8
X138.7Y-57.9
X138.7Y-85.2
X138.9Y-73.1
X139.0Y-67.7
X140.75Y-43.0
X140.75Y-74.75
X141.45Y-106.56
X142.25Y-49.25
X142.25Y-54.5
X142.25Y-59.5
X142.25Y-64.75
X142.25Y-69.75
X143.67Y-101.04
X143.9Y-84.5
X144.0Y-91.6
X144.2Y-113.8
X146.0Y-43.0
X146.0Y-74.75
X146.202Y-107.569
X147.1Y-103.9
X147.25Y-49.25
X147.25Y-54.25
X147.25Y-59.25
X147.25Y-64.5
X147.25Y-69.5
X147.3Y-92.2
X148.8Y-77.7
X149.12Y-101.03
X149.657Y-108.026
X149.9Y-80.5
X150.84Y-105.28
X151.0Y-43.0
X151.0Y-75.0
X151.206Y-100.889
X152.25Y-49.5
X152.25Y-54.25
X152.25Y-59.25
X152.25Y-64.75
X152.5Y-69.5
X153.2Y-77.2
X156.0Y-43.0
X156.0Y-75.25
X156.5Y-86.7
X157.5Y-49.25
X157.5Y-54.0
X157.5Y-59.25
X157.5Y-64.25
X157.5Y-69.75
X158.4Y-88.0
X159.131Y-105.689
X160.4Y-79.2
X160.8Y-89.6
X161.0Y-43.0
X161.0Y-75.5
X162.5Y-49.25
X162.5Y-54.25
X162.5Y-59.0
X162.5Y-64.5
X162.5Y-69.5
X163.4Y-90.1
X166.0Y-43.0
X166.0Y-75.75
X166.4Y-106.8
X166.7Y-90.6
X166.8Y-91.6
X167.0Y-107.3
X167.5Y-49.25
X167.5Y-54.0
X167.5Y-59.25
X167.5Y-64.75
X167.5Y-69.75
X167.5Y-78.5
X168.005Y-103.865
X168.346Y-98.954
X169.5Y-90.1
X171.0Y-43.0
X171.0Y-75.75
X171.0Y-106.6
X172.2Y-102.1
X172.5Y-49.0
X172.5Y-54.25
X172.5Y-59.0
X172.5Y-64.25
X172.5Y-69.5
X178.55Y-102.81
X178.6Y-110.7
X180.89Y-103.5
X181.95Y-96.83
X181.95Y-99.36
T2
G00X151.204Y-107.902
M15
G01X151.204Y-109.002
M16
G05
G00X151.204Y-112.332
M15
G01X151.204Y-112.932
M16
G05
G00X159.844Y-107.902
M15
G01X159.844Y-109.002
M16
G05
G00X159.844Y-112.332
M15
G01X159.844Y-112.932
M16
G05
M30
